<svg id="グループ_150" data-name="グループ 150" xmlns="http://www.w3.org/2000/svg" width="242.056" height="77.201" viewBox="0 0 242.056 77.201">
  <g id="グループ_61" data-name="グループ 61" transform="translate(27.055 28.309)">
    <path id="dimpledimple" d="M11.344,16.26c0-.029,0-.056,0-.083a.633.633,0,0,0-.036-.158.8.8,0,0,0-.036-.083,5.012,5.012,0,0,1-.385-.818,4.483,4.483,0,0,1-.2-1.063c-.042-.467-.062-1.084-.073-1.958s-.01-2.006-.01-3.5c0-.552,0-1.09,0-1.6s.006-.993.011-1.431.011-.834.018-1.171.015-.615.025-.82V3.533a.634.634,0,0,0-.049-.253.536.536,0,0,0-.131-.185.571.571,0,0,0-.188-.114.64.64,0,0,0-.221-.039.685.685,0,0,0-.172.023.579.579,0,0,0-.192.089.471.471,0,0,0-.152.185.672.672,0,0,0-.054.312c0,.2.01.518.014.91s.009.861.012,1.375.007,1.075.009,1.65,0,1.163,0,1.734c0,.067,0,.122,0,.169s-.005.083-.009.112a.333.333,0,0,1-.012.062c0,.013-.009.019-.014.019a.064.064,0,0,1-.035-.017.389.389,0,0,1-.048-.047c-.018-.02-.037-.045-.059-.072s-.044-.059-.067-.092A3.508,3.508,0,0,0,8.7,8.766a3.7,3.7,0,0,0-.716-.443,3.894,3.894,0,0,0-.816-.279,4.076,4.076,0,0,0-.887-.1,4.515,4.515,0,0,0-1.721.33A4.081,4.081,0,0,0,3.188,9.2a4.229,4.229,0,0,0-.911,1.425,5.017,5.017,0,0,0-.33,1.828,5.208,5.208,0,0,0,.33,1.874,4.177,4.177,0,0,0,.911,1.434,4.019,4.019,0,0,0,1.375.916A4.587,4.587,0,0,0,6.284,17a4.067,4.067,0,0,0,.935-.108,3.9,3.9,0,0,0,1.706-.887,4.177,4.177,0,0,0,.689-.793c.019-.024.036-.046.05-.067l.038-.054c.011-.015.02-.028.027-.037s.013-.013.018-.013a.031.031,0,0,1,.026.015.171.171,0,0,1,.022.049c.007.023.014.052.022.088s.016.081.026.133a2.862,2.862,0,0,0,.073.316c.033.116.072.238.112.355s.082.227.119.319a2.155,2.155,0,0,0,.095.209.693.693,0,0,0,.11.144.548.548,0,0,0,.126.094.539.539,0,0,0,.136.051.634.634,0,0,0,.142.015.587.587,0,0,0,.221-.044.616.616,0,0,0,.188-.12.579.579,0,0,0,.131-.181A.539.539,0,0,0,11.344,16.26Zm-5.022-.3a3.473,3.473,0,0,1-1.308-.242,2.885,2.885,0,0,1-1.023-.695,3.133,3.133,0,0,1-.666-1.1,4.31,4.31,0,0,1-.238-1.462,4.405,4.405,0,0,1,.235-1.473,3.132,3.132,0,0,1,.661-1.107,2.857,2.857,0,0,1,1.022-.7,3.5,3.5,0,0,1,1.316-.242,3.232,3.232,0,0,1,1.265.25,3.009,3.009,0,0,1,1.02.71,3.28,3.28,0,0,1,.682,1.11,4.136,4.136,0,0,1,.248,1.449,4.048,4.048,0,0,1-.251,1.438A3.283,3.283,0,0,1,8.6,15a3.04,3.04,0,0,1-1.021.708A3.211,3.211,0,0,1,6.322,15.956ZM17.28,3.762a.887.887,0,0,0-.106-.442.764.764,0,0,0-.254-.267,1.029,1.029,0,0,0-.307-.131,1.111,1.111,0,0,0-.266-.035.936.936,0,0,0-.3.054,1,1,0,0,0-.3.163.82.82,0,0,0-.314.659,1.268,1.268,0,0,0,.014.194,1.036,1.036,0,0,0,.1.315.732.732,0,0,0,.265.294.956.956,0,0,0,.517.13,1.008,1.008,0,0,0,.349-.063.956.956,0,0,0,.3-.182.875.875,0,0,0,.216-.293A.95.95,0,0,0,17.28,3.762Zm-.323,12.575c0-.266-.01-.554-.014-.857s-.009-.621-.012-.948-.007-.663-.009-1,0-.68,0-1.017c0-.409,0-.813,0-1.2s.005-.762.009-1.109.008-.668.012-.952.009-.531.014-.731V8.5a.486.486,0,0,0-.052-.225.477.477,0,0,0-.136-.161.609.609,0,0,0-.189-.1.718.718,0,0,0-.213-.032.726.726,0,0,0-.224.035.625.625,0,0,0-.195.1.489.489,0,0,0-.19.395v.019c0,.133.008.282.011.444s0,.337.006.524,0,.385,0,.592,0,.424,0,.647c0,.442,0,.913,0,1.4s0,.977-.007,1.467,0,.975-.007,1.439,0,.906,0,1.31a.589.589,0,0,0,.052.25.52.52,0,0,0,.136.178.589.589,0,0,0,.189.107.652.652,0,0,0,.213.036.709.709,0,0,0,.224-.036.6.6,0,0,0,.195-.107.514.514,0,0,0,.138-.178.585.585,0,0,0,.052-.25Zm16.113.076a.592.592,0,0,0,.049.242.535.535,0,0,0,.129.179.571.571,0,0,0,.183.111.594.594,0,0,0,.21.038.528.528,0,0,0,.2-.039.537.537,0,0,0,.177-.118.572.572,0,0,0,.127-.2.745.745,0,0,0,.049-.275V15.5c0-.371,0-.8,0-1.248s-.005-.914-.009-1.358-.008-.868-.012-1.23-.009-.663-.014-.863a3.264,3.264,0,0,0-.267-1.232,2.657,2.657,0,0,0-.641-.894,2.736,2.736,0,0,0-.905-.544,3.086,3.086,0,0,0-1.059-.184,3.372,3.372,0,0,0-.828.1,3.463,3.463,0,0,0-.8.312,3.57,3.57,0,0,0-.728.523,3.823,3.823,0,0,0-.614.735,2.31,2.31,0,0,0-1-1.265,2.722,2.722,0,0,0-.735-.308,3.23,3.23,0,0,0-.81-.1,3.572,3.572,0,0,0-1.439.307,3.26,3.26,0,0,0-.64.375,2.836,2.836,0,0,0-.528.516.233.233,0,0,1-.014.025.117.117,0,0,1-.014.018.056.056,0,0,1-.014.011.032.032,0,0,1-.014,0A.012.012,0,0,1,23.09,9.2a.061.061,0,0,1-.006-.021c0-.01,0-.021,0-.036s0-.031,0-.05V8.575a.586.586,0,0,0-.046-.236.47.47,0,0,0-.121-.166.511.511,0,0,0-.171-.1.6.6,0,0,0-.2-.032.663.663,0,0,0-.207.032.533.533,0,0,0-.176.1.456.456,0,0,0-.123.161A.534.534,0,0,0,22,8.556v.019c0,.176.008.364.011.561s0,.4.006.618,0,.435,0,.661,0,.457,0,.69c0,.442,0,.9,0,1.358s-.006.922-.011,1.376-.011.9-.018,1.326-.015.833-.025,1.209v.019a.639.639,0,0,0,.049.253.543.543,0,0,0,.129.185.561.561,0,0,0,.183.114.588.588,0,0,0,.21.039.55.55,0,0,0,.2-.036.5.5,0,0,0,.291-.285.656.656,0,0,0,.046-.25v-.019c0-.214-.01-.464-.014-.736s-.009-.567-.012-.872-.007-.618-.009-.929,0-.617,0-.907c0-.181,0-.356,0-.521s0-.322,0-.466,0-.275.006-.391.006-.216.011-.3a2.287,2.287,0,0,1,.257-.965,2.543,2.543,0,0,1,.6-.751,2.788,2.788,0,0,1,.813-.487,2.509,2.509,0,0,1,.9-.174,1.928,1.928,0,0,1,.677.118,1.668,1.668,0,0,1,.586.372,1.886,1.886,0,0,1,.425.65,2.939,2.939,0,0,1,.2.953c0,.081.008.19.011.323s0,.288.006.462,0,.365,0,.569,0,.42,0,.644c0,.3,0,.622,0,.939s0,.633,0,.935,0,.59-.006.85-.006.492-.011.682v.019a.586.586,0,0,0,.046.236.47.47,0,0,0,.121.166.511.511,0,0,0,.171.1.6.6,0,0,0,.2.032.642.642,0,0,0,.21-.035.575.575,0,0,0,.183-.1.5.5,0,0,0,.129-.167.528.528,0,0,0,.049-.228v-.019c0-.247-.01-.522-.014-.813s-.009-.6-.012-.911-.007-.631-.009-.943,0-.619,0-.909c0-.176,0-.346,0-.507s0-.313,0-.454,0-.269.006-.382.006-.212.011-.293a1.988,1.988,0,0,1,.26-.894,2.461,2.461,0,0,1,.608-.7,2.911,2.911,0,0,1,.825-.462,2.7,2.7,0,0,1,.913-.166,2.015,2.015,0,0,1,.677.112,1.656,1.656,0,0,1,.586.356,1.8,1.8,0,0,1,.425.631,2.824,2.824,0,0,1,.2.936c0,.081.008.19.011.323s0,.288.006.462,0,.365,0,.569,0,.42,0,.644c0,.3,0,.622,0,.939s0,.633,0,.935,0,.59-.006.85-.006.492-.011.682Zm5.973,4.813a.792.792,0,0,0,.049.286.574.574,0,0,0,.129.2.537.537,0,0,0,.183.12.57.57,0,0,0,.21.04.584.584,0,0,0,.33-.081.44.44,0,0,0,.169-.236,1.464,1.464,0,0,0,.062-.382c.009-.151.009-.324.009-.519,0-.342,0-.792,0-1.281s0-1.018-.007-1.52,0-.976-.007-1.356,0-.665,0-.789c0-.057,0-.1,0-.144s0-.07,0-.094a.156.156,0,0,1,.011-.051A.024.024,0,0,1,40.2,15.4a.054.054,0,0,1,.033.017.429.429,0,0,1,.043.047l.058.072c.022.028.047.059.076.092a3.692,3.692,0,0,0,.633.61,3.756,3.756,0,0,0,.734.434,3.935,3.935,0,0,0,.8.259,4.1,4.1,0,0,0,.836.086,4.576,4.576,0,0,0,1.718-.322,4,4,0,0,0,1.369-.912,4.151,4.151,0,0,0,.9-1.422,5.381,5.381,0,0,0,0-3.694,4.267,4.267,0,0,0-.9-1.437A4.05,4.05,0,0,0,45.136,8.3a4.455,4.455,0,0,0-1.718-.333,4.181,4.181,0,0,0-.931.1,3.858,3.858,0,0,0-.836.294,3.637,3.637,0,0,0-.718.462,3.482,3.482,0,0,0-.578.606l-.051.064c-.015.019-.028.035-.04.048a.193.193,0,0,1-.033.03.052.052,0,0,1-.029.01.025.025,0,0,1-.022-.014.107.107,0,0,1-.011-.039.539.539,0,0,1,0-.06c0-.023,0-.049,0-.078s0-.1,0-.156,0-.125.007-.191,0-.134.007-.2,0-.125,0-.177a.589.589,0,0,0-.052-.25A.52.52,0,0,0,40,8.242a.589.589,0,0,0-.189-.107.652.652,0,0,0-.213-.036.589.589,0,0,0-.207.036.5.5,0,0,0-.176.111.525.525,0,0,0-.123.19.755.755,0,0,0-.046.272v.019c0,.238.01.546.014.909s.009.783.012,1.243.007.961.009,1.489,0,1.082,0,1.648c0,.685,0,1.385,0,2.073s-.005,1.364-.009,2-.008,1.232-.012,1.761-.009.99-.014,1.356Zm4.337-5.213a3.284,3.284,0,0,1-1.268-.247,3.031,3.031,0,0,1-1.027-.7,3.25,3.25,0,0,1-.688-1.1,4.071,4.071,0,0,1-.251-1.446,4.119,4.119,0,0,1,.251-1.452,3.32,3.32,0,0,1,.688-1.116,3.05,3.05,0,0,1,1.027-.717,3.3,3.3,0,0,1,2.536,0,3.05,3.05,0,0,1,1.027.717,3.32,3.32,0,0,1,.688,1.116,4.119,4.119,0,0,1,.251,1.452,4.071,4.071,0,0,1-.251,1.446,3.25,3.25,0,0,1-.688,1.1,3.031,3.031,0,0,1-1.027.7A3.284,3.284,0,0,1,43.38,16.013Zm9.759.228c0-.338-.01-.741-.014-1.192s-.009-.951-.012-1.483-.007-1.094-.009-1.672,0-1.17,0-1.759c0-.718,0-1.434,0-2.117s.005-1.334.009-1.923.008-1.115.012-1.548.009-.775.014-.994V3.533a.618.618,0,0,0-.049-.25.511.511,0,0,0-.129-.178A.553.553,0,0,0,52.778,3a.627.627,0,0,0-.21-.036A.693.693,0,0,0,52.345,3a.579.579,0,0,0-.195.111.53.53,0,0,0-.138.19.677.677,0,0,0-.052.272V3.59c.01.195.017.5.022.881s.009.851.011,1.375,0,1.106,0,1.721,0,1.263,0,1.919,0,1.314,0,1.962,0,1.283,0,1.878-.006,1.153-.011,1.646-.012.924-.022,1.267v.019a.661.661,0,0,0,.049.261.514.514,0,0,0,.131.184.554.554,0,0,0,.188.109.694.694,0,0,0,.441,0,.554.554,0,0,0,.188-.109.514.514,0,0,0,.131-.184.661.661,0,0,0,.049-.261Zm12.327-1.084a.5.5,0,0,0-.049-.215.581.581,0,0,0-.129-.175.619.619,0,0,0-.183-.118.545.545,0,0,0-.21-.043.471.471,0,0,0-.1.011.5.5,0,0,0-.1.032.566.566,0,0,0-.094.054.664.664,0,0,0-.089.075,4.57,4.57,0,0,1-.485.477,3.3,3.3,0,0,1-.6.4,3.187,3.187,0,0,1-.745.276,4.041,4.041,0,0,1-.934.1,3.452,3.452,0,0,1-1.27-.232,2.922,2.922,0,0,1-1.013-.665,3.021,3.021,0,0,1-.671-1.054,3.905,3.905,0,0,1-.243-1.4,1.183,1.183,0,0,1,.009-.166.267.267,0,0,1,.034-.105.134.134,0,0,1,.07-.055.336.336,0,0,1,.116-.016l.517,0,.836.007,1.025.007,1.084,0h.515l.479,0,.429-.006c.133,0,.256-.006.365-.011a1.909,1.909,0,0,0,.618-.106,1.185,1.185,0,0,0,.433-.268,1.082,1.082,0,0,0,.254-.4,1.449,1.449,0,0,0,.083-.5,2.466,2.466,0,0,0-.219-.945A3.518,3.518,0,0,0,64.532,9.1a3.588,3.588,0,0,0-1.166-.818,4.156,4.156,0,0,0-1.685-.335,4.1,4.1,0,0,0-1.61.329,4.161,4.161,0,0,0-1.353.932,4.405,4.405,0,0,0-.932,1.452,5.118,5.118,0,0,0-.347,1.891,5,5,0,0,0,.332,1.833,4.2,4.2,0,0,0,.912,1.418,4.064,4.064,0,0,0,1.365.915,4.451,4.451,0,0,0,1.691.324,5.4,5.4,0,0,0,1.594-.233,4.589,4.589,0,0,0,1.169-.545,3.259,3.259,0,0,0,.72-.627A.9.9,0,0,0,65.467,15.157Zm-1.16-4.28a.6.6,0,0,1-.034.209.419.419,0,0,1-.109.164.529.529,0,0,1-.194.111,1.05,1.05,0,0,1-.291.048c-.133,0-.3.008-.49.011l-.633.006-.718,0h-.747c-.552,0-.976,0-1.3,0s-.555-.009-.714-.021a.845.845,0,0,1-.3-.056.107.107,0,0,1-.061-.11,1.491,1.491,0,0,1,.21-.663,3.23,3.23,0,0,1,.6-.771,3.357,3.357,0,0,1,.941-.639A3,3,0,0,1,61.7,8.9a3.109,3.109,0,0,1,1.226.232,2.421,2.421,0,0,1,.8.551,2.269,2.269,0,0,1,.441.654A1.427,1.427,0,0,1,64.306,10.877ZM78.194,16.26c0-.029,0-.056,0-.083a.633.633,0,0,0-.036-.158.8.8,0,0,0-.036-.083,5.012,5.012,0,0,1-.385-.818,4.483,4.483,0,0,1-.2-1.063c-.042-.467-.062-1.084-.073-1.958s-.01-2.006-.01-3.5c0-.552,0-1.09,0-1.6s.006-.993.011-1.431.011-.834.018-1.171.015-.615.025-.82V3.533a.634.634,0,0,0-.049-.253.536.536,0,0,0-.131-.185.571.571,0,0,0-.188-.114.64.64,0,0,0-.221-.039.685.685,0,0,0-.172.023.579.579,0,0,0-.192.089.471.471,0,0,0-.152.185.672.672,0,0,0-.054.312c0,.2.01.518.014.91s.009.861.012,1.375.007,1.075.009,1.65,0,1.163,0,1.734c0,.067,0,.122,0,.169s-.005.083-.009.112a.332.332,0,0,1-.012.062c0,.013-.009.019-.014.019a.064.064,0,0,1-.035-.017.39.39,0,0,1-.048-.047c-.018-.02-.037-.045-.059-.072s-.044-.059-.067-.092a3.508,3.508,0,0,0-.587-.589,3.7,3.7,0,0,0-.716-.443,3.894,3.894,0,0,0-.816-.279,4.076,4.076,0,0,0-.887-.1,4.515,4.515,0,0,0-1.721.33,4.081,4.081,0,0,0-1.375.926,4.229,4.229,0,0,0-.911,1.425,5.017,5.017,0,0,0-.33,1.828,5.208,5.208,0,0,0,.33,1.874,4.177,4.177,0,0,0,.911,1.434,4.019,4.019,0,0,0,1.375.916A4.587,4.587,0,0,0,73.133,17a4.067,4.067,0,0,0,.935-.108,3.9,3.9,0,0,0,1.706-.887,4.177,4.177,0,0,0,.689-.793c.019-.024.036-.046.05-.067l.038-.054c.011-.015.02-.028.027-.037s.013-.013.018-.013a.031.031,0,0,1,.026.015.171.171,0,0,1,.022.049c.007.023.014.052.022.088s.016.081.026.133a2.864,2.864,0,0,0,.073.316c.033.116.072.238.112.355s.082.227.119.319a2.153,2.153,0,0,0,.095.209.693.693,0,0,0,.11.144.548.548,0,0,0,.126.094.539.539,0,0,0,.136.051.634.634,0,0,0,.142.015.587.587,0,0,0,.221-.044.616.616,0,0,0,.188-.12.579.579,0,0,0,.131-.181A.539.539,0,0,0,78.194,16.26Zm-5.022-.3a3.473,3.473,0,0,1-1.308-.242,2.885,2.885,0,0,1-1.023-.695,3.133,3.133,0,0,1-.666-1.1,4.31,4.31,0,0,1-.238-1.462,4.405,4.405,0,0,1,.235-1.473,3.132,3.132,0,0,1,.661-1.107,2.857,2.857,0,0,1,1.022-.7,3.5,3.5,0,0,1,1.316-.242,3.232,3.232,0,0,1,1.265.25,3.009,3.009,0,0,1,1.02.71,3.28,3.28,0,0,1,.682,1.11,4.136,4.136,0,0,1,.248,1.449,4.048,4.048,0,0,1-.251,1.438A3.283,3.283,0,0,1,75.45,15a3.04,3.04,0,0,1-1.021.708A3.211,3.211,0,0,1,73.171,15.956ZM84.129,3.762a.887.887,0,0,0-.106-.442.764.764,0,0,0-.254-.267,1.029,1.029,0,0,0-.307-.131,1.111,1.111,0,0,0-.266-.035.936.936,0,0,0-.3.054,1,1,0,0,0-.3.163.82.82,0,0,0-.314.659,1.268,1.268,0,0,0,.014.194,1.036,1.036,0,0,0,.1.315.732.732,0,0,0,.265.294.956.956,0,0,0,.517.13,1.008,1.008,0,0,0,.349-.063.955.955,0,0,0,.3-.182.875.875,0,0,0,.215-.293A.95.95,0,0,0,84.129,3.762Zm-.323,12.575c0-.266-.01-.554-.014-.857s-.009-.621-.012-.948-.007-.663-.009-1,0-.68,0-1.017c0-.409,0-.813,0-1.2s.005-.762.009-1.109.008-.668.012-.952.009-.531.014-.731V8.5a.486.486,0,0,0-.052-.225.477.477,0,0,0-.136-.161.61.61,0,0,0-.189-.1.718.718,0,0,0-.213-.032.726.726,0,0,0-.224.035.625.625,0,0,0-.195.1.489.489,0,0,0-.19.395v.019c0,.133.008.282.011.444s0,.337.006.524,0,.385,0,.592,0,.424,0,.647c0,.442,0,.913,0,1.4s0,.977-.007,1.467,0,.975-.007,1.439,0,.906,0,1.31a.589.589,0,0,0,.052.25.52.52,0,0,0,.136.178.589.589,0,0,0,.189.107.652.652,0,0,0,.213.036.709.709,0,0,0,.224-.036.6.6,0,0,0,.195-.107.514.514,0,0,0,.138-.178.585.585,0,0,0,.052-.25Zm16.113.076a.592.592,0,0,0,.049.242.535.535,0,0,0,.129.179.571.571,0,0,0,.183.111.594.594,0,0,0,.21.038.528.528,0,0,0,.2-.039.537.537,0,0,0,.177-.118.572.572,0,0,0,.127-.2.745.745,0,0,0,.049-.275V15.5c0-.371,0-.8,0-1.248s-.005-.914-.009-1.358-.008-.868-.012-1.23S101.008,11,101,10.8a3.264,3.264,0,0,0-.267-1.232,2.657,2.657,0,0,0-.641-.894,2.736,2.736,0,0,0-.905-.544,3.086,3.086,0,0,0-1.059-.184,3.372,3.372,0,0,0-.828.1,3.463,3.463,0,0,0-.8.312,3.57,3.57,0,0,0-.728.523,3.823,3.823,0,0,0-.614.735,2.31,2.31,0,0,0-1-1.265,2.722,2.722,0,0,0-.735-.308,3.23,3.23,0,0,0-.81-.1,3.529,3.529,0,0,0-.731.078,3.565,3.565,0,0,0-.708.229,3.261,3.261,0,0,0-.64.375,2.836,2.836,0,0,0-.528.516.236.236,0,0,1-.014.025.117.117,0,0,1-.014.018.056.056,0,0,1-.014.011.032.032,0,0,1-.014,0,.012.012,0,0,1-.011-.007.061.061,0,0,1-.006-.021c0-.01,0-.021,0-.036s0-.031,0-.05V8.575a.586.586,0,0,0-.046-.236.47.47,0,0,0-.121-.166.511.511,0,0,0-.171-.1.6.6,0,0,0-.2-.032.663.663,0,0,0-.207.032.533.533,0,0,0-.176.1.456.456,0,0,0-.123.161.534.534,0,0,0-.046.225v.019c0,.176.008.364.011.561s0,.4.006.618,0,.435,0,.661,0,.457,0,.69c0,.442,0,.9,0,1.358s-.006.922-.011,1.376-.011.9-.018,1.326-.015.833-.025,1.209v.019a.639.639,0,0,0,.049.253.543.543,0,0,0,.129.185.561.561,0,0,0,.183.114.588.588,0,0,0,.21.039.55.55,0,0,0,.2-.036.5.5,0,0,0,.291-.285.656.656,0,0,0,.046-.25v-.019c0-.214-.01-.464-.014-.736s-.009-.567-.012-.872-.007-.618-.009-.929,0-.617,0-.907c0-.181,0-.356,0-.521s0-.322,0-.466,0-.275.006-.391.006-.216.011-.3a2.287,2.287,0,0,1,.257-.965,2.543,2.543,0,0,1,.6-.751,2.788,2.788,0,0,1,.813-.487,2.509,2.509,0,0,1,.9-.174,1.928,1.928,0,0,1,.677.118,1.668,1.668,0,0,1,.586.372,1.886,1.886,0,0,1,.425.65,2.939,2.939,0,0,1,.2.953c0,.081.008.19.011.323s0,.288.006.462,0,.365,0,.569,0,.42,0,.644c0,.3,0,.622,0,.939s0,.633,0,.935,0,.59-.006.85-.006.492-.011.682v.019a.586.586,0,0,0,.046.236.47.47,0,0,0,.121.166.511.511,0,0,0,.171.1.6.6,0,0,0,.2.032.642.642,0,0,0,.21-.035.575.575,0,0,0,.183-.1.5.5,0,0,0,.129-.167.528.528,0,0,0,.049-.228v-.019c0-.247-.01-.522-.014-.813s-.009-.6-.012-.911-.007-.631-.009-.943,0-.619,0-.909c0-.176,0-.346,0-.507s0-.313,0-.454,0-.269.006-.382.006-.212.011-.293a1.988,1.988,0,0,1,.26-.894,2.461,2.461,0,0,1,.608-.7,2.91,2.91,0,0,1,.825-.462,2.7,2.7,0,0,1,.913-.166,2.015,2.015,0,0,1,.677.112,1.656,1.656,0,0,1,.586.356,1.8,1.8,0,0,1,.425.631,2.824,2.824,0,0,1,.2.936c0,.081.008.19.011.323s0,.288.006.462,0,.365,0,.569,0,.42,0,.644c0,.3,0,.622,0,.939s0,.633,0,.935,0,.59-.006.85-.006.492-.011.682Zm5.973,4.813a.792.792,0,0,0,.049.286.574.574,0,0,0,.129.2.537.537,0,0,0,.183.12.57.57,0,0,0,.21.04.584.584,0,0,0,.33-.081.44.44,0,0,0,.169-.236,1.464,1.464,0,0,0,.062-.382c.009-.151.009-.324.009-.519,0-.342,0-.792,0-1.281s0-1.018-.007-1.52,0-.976-.007-1.356,0-.665,0-.789c0-.057,0-.1,0-.144s0-.07,0-.094a.156.156,0,0,1,.011-.051.024.024,0,0,1,.022-.015.054.054,0,0,1,.033.017.429.429,0,0,1,.043.047l.058.072c.022.028.047.059.076.092a3.692,3.692,0,0,0,.633.61,3.756,3.756,0,0,0,.734.434,3.935,3.935,0,0,0,.8.259,4.1,4.1,0,0,0,.836.086,4.576,4.576,0,0,0,1.718-.322,4,4,0,0,0,1.369-.912,4.151,4.151,0,0,0,.9-1.422,5.381,5.381,0,0,0,0-3.694,4.267,4.267,0,0,0-.9-1.437,4.05,4.05,0,0,0-1.369-.934,4.455,4.455,0,0,0-1.718-.333,4.181,4.181,0,0,0-.931.1,3.858,3.858,0,0,0-.836.294,3.637,3.637,0,0,0-.718.462,3.482,3.482,0,0,0-.578.606l-.051.064c-.015.019-.028.035-.04.048a.193.193,0,0,1-.033.03.052.052,0,0,1-.029.01.025.025,0,0,1-.022-.014.107.107,0,0,1-.011-.039.54.54,0,0,1,0-.06c0-.023,0-.049,0-.078s0-.1,0-.156,0-.125.007-.191,0-.134.007-.2,0-.125,0-.177a.589.589,0,0,0-.052-.25.52.52,0,0,0-.136-.178.589.589,0,0,0-.189-.107.652.652,0,0,0-.213-.036.589.589,0,0,0-.207.036.5.5,0,0,0-.176.111.525.525,0,0,0-.123.19.755.755,0,0,0-.046.272v.019c0,.238.01.546.014.909s.009.783.012,1.243.007.961.009,1.489,0,1.082,0,1.648c0,.685,0,1.385,0,2.073s-.005,1.364-.009,2-.008,1.232-.012,1.761-.009.99-.014,1.356Zm4.337-5.213a3.284,3.284,0,0,1-1.268-.247,3.031,3.031,0,0,1-1.027-.7,3.25,3.25,0,0,1-.688-1.1A4.071,4.071,0,0,1,107,12.513a4.119,4.119,0,0,1,.251-1.452,3.32,3.32,0,0,1,.688-1.116,3.05,3.05,0,0,1,1.027-.717,3.3,3.3,0,0,1,2.536,0,3.05,3.05,0,0,1,1.027.717,3.32,3.32,0,0,1,.688,1.116,4.119,4.119,0,0,1,.251,1.452,4.071,4.071,0,0,1-.251,1.446,3.249,3.249,0,0,1-.688,1.1,3.031,3.031,0,0,1-1.027.7A3.284,3.284,0,0,1,110.23,16.013Zm9.759.228c0-.338-.01-.741-.014-1.192s-.009-.951-.012-1.483-.007-1.094-.009-1.672,0-1.17,0-1.759c0-.718,0-1.434,0-2.117s.005-1.334.009-1.923.008-1.115.012-1.548.009-.775.014-.994V3.533a.618.618,0,0,0-.049-.25.511.511,0,0,0-.129-.178A.553.553,0,0,0,119.628,3a.627.627,0,0,0-.21-.036.693.693,0,0,0-.224.036A.579.579,0,0,0,119,3.11a.53.53,0,0,0-.138.19.677.677,0,0,0-.052.272V3.59c.01.195.017.5.022.881s.009.851.011,1.375,0,1.106,0,1.721,0,1.263,0,1.919,0,1.314,0,1.962,0,1.283,0,1.878-.006,1.153-.011,1.646-.012.924-.022,1.267v.019a.661.661,0,0,0,.049.261.514.514,0,0,0,.131.184.554.554,0,0,0,.188.109.694.694,0,0,0,.441,0,.554.554,0,0,0,.188-.109.514.514,0,0,0,.131-.184.661.661,0,0,0,.049-.261Zm12.327-1.084a.5.5,0,0,0-.049-.215.582.582,0,0,0-.129-.175.619.619,0,0,0-.183-.118.545.545,0,0,0-.21-.043.471.471,0,0,0-.1.011.5.5,0,0,0-.1.032.564.564,0,0,0-.094.054.663.663,0,0,0-.089.075,4.573,4.573,0,0,1-.485.477,3.3,3.3,0,0,1-.6.4,3.187,3.187,0,0,1-.745.276,4.041,4.041,0,0,1-.934.1,3.452,3.452,0,0,1-1.27-.232,2.922,2.922,0,0,1-1.013-.665,3.021,3.021,0,0,1-.671-1.054,3.905,3.905,0,0,1-.243-1.4,1.183,1.183,0,0,1,.009-.166.267.267,0,0,1,.034-.105.134.134,0,0,1,.07-.055.336.336,0,0,1,.116-.016l.517,0,.836.007,1.025.007,1.084,0h.515l.479,0,.429-.006c.133,0,.256-.006.365-.011a1.909,1.909,0,0,0,.618-.106,1.185,1.185,0,0,0,.433-.268,1.082,1.082,0,0,0,.254-.4,1.449,1.449,0,0,0,.083-.5,2.466,2.466,0,0,0-.219-.945,3.518,3.518,0,0,0-.677-1.022,3.588,3.588,0,0,0-1.166-.818,4.156,4.156,0,0,0-1.685-.335,4.1,4.1,0,0,0-1.61.329,4.161,4.161,0,0,0-1.353.932,4.405,4.405,0,0,0-.932,1.452,5.118,5.118,0,0,0-.347,1.891,5,5,0,0,0,.332,1.833,4.2,4.2,0,0,0,.912,1.418,4.064,4.064,0,0,0,1.365.915,4.451,4.451,0,0,0,1.691.324,5.4,5.4,0,0,0,1.594-.233,4.589,4.589,0,0,0,1.169-.545,3.259,3.259,0,0,0,.72-.627A.9.9,0,0,0,132.316,15.157Zm-1.16-4.28a.6.6,0,0,1-.034.209.419.419,0,0,1-.109.164.529.529,0,0,1-.194.111,1.05,1.05,0,0,1-.291.048c-.133,0-.3.008-.49.011l-.633.006-.718,0h-.747c-.552,0-.976,0-1.3,0s-.555-.009-.714-.021a.845.845,0,0,1-.3-.056.107.107,0,0,1-.061-.11,1.491,1.491,0,0,1,.21-.663,3.23,3.23,0,0,1,.6-.771,3.357,3.357,0,0,1,.941-.639A3,3,0,0,1,128.55,8.9a3.109,3.109,0,0,1,1.226.232,2.421,2.421,0,0,1,.8.551,2.268,2.268,0,0,1,.441.654A1.427,1.427,0,0,1,131.156,10.877Z" fill="#303030"/>
  </g>
  <g id="ハサミのフリーアイコン" transform="translate(0 30.527)">
    <path id="パス_9" data-name="パス 9" d="M.528.937,0,1.264h0L0,1.27l.38.242L.671,1.7l.186.117.065.041c.677.426,1.483.872,2.318,1.289s1.7.8,2.5,1.11a11.869,11.869,0,0,0,2.089.632c.563.1.96.065,1.092-.147l.039-.058A.319.319,0,0,0,9,4.58a.272.272,0,0,0,0-.1.226.226,0,0,0-.031-.087.2.2,0,0,0-.065-.065L2.015,0l-.26.164Z" transform="translate(10.689 9.056)" fill="#303030"/>
    <path id="パス_10" data-name="パス 10" d="M.417,1.325a2.713,2.713,0,0,0-.4,1.162A3.111,3.111,0,0,0,.141,3.722a3.644,3.644,0,0,0,.6,1.161,4.014,4.014,0,0,0,1.041.942,4.138,4.138,0,0,0,.492.263,3.978,3.978,0,0,0,.507.188,3.824,3.824,0,0,0,.514.114,3.665,3.665,0,0,0,.512.041,2.474,2.474,0,0,1,.353.03,2.536,2.536,0,0,1,.343.079,2.613,2.613,0,0,1,.328.125,2.69,2.69,0,0,1,.31.168l.241.152.268.169.291.184.312.2.031-.02.031-.02.031-.02.031-.02L7.421,6.8l.227-.143.226-.143L8.1,6.376l.223-.139a4.334,4.334,0,0,1-.574-.581,4.189,4.189,0,0,1-.45-.676,4,4,0,0,1-.308-.752,3.853,3.853,0,0,1-.147-.809,3.251,3.251,0,0,0-.16-.792,3.6,3.6,0,0,0-.357-.758,3.849,3.849,0,0,0-.543-.685A4.074,4.074,0,0,0,3.766.082,3.648,3.648,0,0,0,2.457.04,3.114,3.114,0,0,0,1.291.462,2.71,2.71,0,0,0,.417,1.325Zm3.857.543a2.244,2.244,0,0,1,.565.5,1.985,1.985,0,0,1,.335.614,1.625,1.625,0,0,1,.079.649,1.338,1.338,0,0,1-.66,1.05,1.625,1.625,0,0,1-.619.21,1.99,1.99,0,0,1-.7-.035,2.278,2.278,0,0,1-1.264-.794,1.989,1.989,0,0,1-.335-.615A1.626,1.626,0,0,1,1.6,2.8a1.356,1.356,0,0,1,.2-.6A1.338,1.338,0,0,1,2,1.946a1.372,1.372,0,0,1,.121-.1,1.426,1.426,0,0,1,.132-.09h0l.068-.038.07-.035.073-.031.074-.028h.012a1.743,1.743,0,0,1,.408-.083,1.966,1.966,0,0,1,.434.013,2.146,2.146,0,0,1,.442.111A2.284,2.284,0,0,1,4.274,1.868Z" fill="#303030"/>
    <path id="パス_11" data-name="パス 11" d="M.006.026.045,0,0,.019H0v0Z" transform="translate(10.075 9.92)" fill="#303030"/>
    <path id="パス_12" data-name="パス 12" d="M9.305,4.539l-.548.345-.564.354-.568.357-.56.352-.548.346L6,6.615l-.463.292-.4.254a2.542,2.542,0,0,1-1.334.4A3.765,3.765,0,0,0,3.3,7.6a3.858,3.858,0,0,0-.514.115,3.949,3.949,0,0,0-.507.189,4.09,4.09,0,0,0-1.251.881,3.837,3.837,0,0,0-.56.741,3.539,3.539,0,0,0-.347.819A3.16,3.16,0,0,0,0,11.2q0,.033,0,.065t0,.064q0,.032,0,.064t0,.065a2.851,2.851,0,0,0,.046.316,2.77,2.77,0,0,0,.082.31,2.689,2.689,0,0,0,1.15,1.455,3.1,3.1,0,0,0,1.167.423,3.638,3.638,0,0,0,1.308-.043,4.1,4.1,0,0,0,2.016-1.1,3.842,3.842,0,0,0,.543-.684,3.587,3.587,0,0,0,.357-.758,3.256,3.256,0,0,0,.16-.793,3.87,3.87,0,0,1,.194-.955,4.088,4.088,0,0,1,.416-.872,4.326,4.326,0,0,1,.607-.757,4.459,4.459,0,0,1,.767-.611l.691-.434,2.243-1.408L19.594.608a.19.19,0,0,0,.043-.035.208.208,0,0,0,.031-.045.232.232,0,0,0,.019-.053.248.248,0,0,0,.007-.057s0,0,0-.005,0,0,0-.006V.4l0-.005a.268.268,0,0,0,0-.036.278.278,0,0,0-.009-.034.3.3,0,0,0-.014-.033A.341.341,0,0,0,19.645.26L19.607.2c-.133-.212-.529-.244-1.092-.147a11.876,11.876,0,0,0-2.089.633c-.8.307-1.662.694-2.5,1.111s-1.641.863-2.318,1.289l-.181.114-.493.31-.732.462ZM5.05,9.755a1.377,1.377,0,0,1,.137.294,1.4,1.4,0,0,1,.065.313l0,.032c0,.011,0,.022,0,.032s0,.022,0,.032,0,.021,0,.032a1.642,1.642,0,0,1-.066.455A1.9,1.9,0,0,1,5,11.388a2.132,2.132,0,0,1-.31.4,2.3,2.3,0,0,1-.418.337,2.252,2.252,0,0,1-.7.29,1.99,1.99,0,0,1-.7.035,1.626,1.626,0,0,1-.619-.21A1.361,1.361,0,0,1,1.8,11.8a1.31,1.31,0,0,1-.077-.144,1.351,1.351,0,0,1-.059-.151,1.416,1.416,0,0,1-.04-.156,1.5,1.5,0,0,1-.023-.16l0-.031q0-.016,0-.032t0-.032q0-.016,0-.033a1.641,1.641,0,0,1,.066-.453,1.9,1.9,0,0,1,.191-.44,2.123,2.123,0,0,1,.309-.4,2.291,2.291,0,0,1,.418-.337,2.259,2.259,0,0,1,.7-.291,1.99,1.99,0,0,1,.7-.036,1.619,1.619,0,0,1,.619.21A1.359,1.359,0,0,1,5.05,9.755Zm5.165-4.082c0,.006,0,.011,0,.017s0,.011,0,.017,0,.011,0,.017,0,.011,0,.017a.754.754,0,0,1-.053.278A.764.764,0,0,1,8.694,5.8c0-.006,0-.011,0-.017s0-.011,0-.017,0-.011,0-.017,0-.011,0-.017a.761.761,0,0,1,.42-.68.769.769,0,0,1,.277-.078.751.751,0,0,1,.3.033.761.761,0,0,1,.526.661Z" transform="translate(0.002 2.595)" fill="#303030"/>
  </g>
  <g id="グループ_108" data-name="グループ 108" transform="translate(172.506)">
    <g id="線_25" data-name="線 25" fill="none">
      <path d="M.232.444,69.318,36.489" stroke="none"/>
      <path d="M 69.08657836914062 36.93286514282227 L -1.909735829030978e-06 0.8876875638961792 L 0.4631370306015015 -2.058933887383319e-06 L 69.54971313476562 36.04517364501953 L 69.08657836914062 36.93286514282227 Z" stroke="none" fill="#303030"/>
    </g>
    <g id="線_26" data-name="線 26" transform="translate(34.775 35.988)" fill="none">
      <path d="M34.543.5H0" stroke="none"/>
      <path d="M 34.54329299926758 1.001251578330994 L 5.319760020938702e-06 1.001251578330994 L 5.319760020938702e-06 0 L 34.54329299926758 0 L 34.54329299926758 1.001251578330994 Z" stroke="none" fill="#303030"/>
    </g>
    <g id="パス_16" data-name="パス 16" transform="translate(34.274 36.489)" fill="none">
      <path d="M.5,0V40.712" stroke="none"/>
      <path d="M 1.001261591911316 40.71191024780273 L 1.002611315925606e-05 40.71191024780273 L 1.002611315925606e-05 0 L 1.001261591911316 0 L 1.001261591911316 40.71191024780273 Z" stroke="none" fill="#303030"/>
    </g>
  </g>
</svg>
